<?xml version="1.0" encoding="utf-8" ?>
<svg baseProfile="full" height="1000" version="1.1" viewBox="0 0 8 16" width="1000" xmlns="http://www.w3.org/2000/svg" xmlns:ev="http://www.w3.org/2001/xml-events" xmlns:xlink="http://www.w3.org/1999/xlink"><defs /><path d="M 5 2 L 7 2 7 3 6 3 6 4 5 4 5 5 4 5 4 6 3 6 3 7 2 7 2 8 3 8 3 9 4 9 4 10 5 10 5 11 6 11 6 12 7 12 7 13 5 13 5 12 4 12 4 11 3 11 3 10 2 10 2 9 1 9 1 8 0 8 0 7 1 7 1 6 2 6 2 5 3 5 3 4 4 4 4 3 5 3 Z" fill="black" fill-rule="nonzero" /></svg>