<?xml version="1.0" encoding="utf-8" ?>
<svg baseProfile="full" height="1000" version="1.1" viewBox="0 0 8 16" width="1000" xmlns="http://www.w3.org/2000/svg" xmlns:ev="http://www.w3.org/2001/xml-events" xmlns:xlink="http://www.w3.org/1999/xlink"><defs /><path d="M 0 2 L 2 2 2 4 3 4 3 6 5 6 5 4 6 4 6 2 8 2 8 4 7 4 7 6 6 6 6 7 5 7 5 8 6 8 6 9 7 9 7 11 8 11 8 13 6 13 6 11 5 11 5 9 3 9 3 11 2 11 2 13 0 13 0 11 1 11 1 9 2 9 2 8 3 8 3 7 2 7 2 6 1 6 1 4 0 4 Z" fill="black" fill-rule="nonzero" /></svg>