<?xml version="1.0" encoding="utf-8" ?>
<svg baseProfile="full" height="1000" version="1.1" viewBox="0 0 8 16" width="1000" xmlns="http://www.w3.org/2000/svg" xmlns:ev="http://www.w3.org/2001/xml-events" xmlns:xlink="http://www.w3.org/1999/xlink"><defs /><path d="M 0 0 L 1 0 1 1 0 1 Z M 2 0 L 3 0 3 1 2 1 Z M 4 0 L 5 0 5 1 4 1 Z M 6 0 L 7 0 7 1 6 1 Z M 1 1 L 2 1 2 2 1 2 Z M 3 1 L 4 1 4 2 3 2 Z M 5 1 L 6 1 6 2 5 2 Z M 7 1 L 8 1 8 2 7 2 Z M 1 2 L 0 2 0 3 1 3 Z M 2 2 L 3 2 3 3 2 3 Z M 4 2 L 5 2 5 3 4 3 Z M 6 2 L 7 2 7 3 6 3 Z M 1 3 L 2 3 2 4 1 4 Z M 3 3 L 4 3 4 4 3 4 Z M 5 3 L 6 3 6 4 5 4 Z M 7 3 L 8 3 8 4 7 4 Z M 1 4 L 0 4 0 5 1 5 Z M 2 4 L 3 4 3 5 2 5 Z M 4 4 L 5 4 5 5 4 5 Z M 6 4 L 7 4 7 5 6 5 Z M 1 5 L 2 5 2 6 1 6 Z M 3 5 L 4 5 4 6 3 6 Z M 5 5 L 6 5 6 6 5 6 Z M 7 5 L 8 5 8 6 7 6 Z M 1 6 L 0 6 0 7 1 7 Z M 2 6 L 3 6 3 7 2 7 Z M 4 6 L 5 6 5 7 4 7 Z M 6 6 L 7 6 7 7 6 7 Z M 1 7 L 2 7 2 8 1 8 Z M 3 7 L 4 7 4 8 3 8 Z M 5 7 L 6 7 6 8 5 8 Z M 7 7 L 8 7 8 8 7 8 Z M 1 8 L 0 8 0 9 1 9 Z M 2 8 L 3 8 3 9 2 9 Z M 4 8 L 5 8 5 9 4 9 Z M 6 8 L 7 8 7 9 6 9 Z M 1 9 L 2 9 2 10 1 10 Z M 3 9 L 4 9 4 10 3 10 Z M 5 9 L 6 9 6 10 5 10 Z M 7 9 L 8 9 8 10 7 10 Z M 1 10 L 0 10 0 11 1 11 Z M 2 10 L 3 10 3 11 2 11 Z M 4 10 L 5 10 5 11 4 11 Z M 6 10 L 7 10 7 11 6 11 Z M 1 11 L 2 11 2 12 1 12 Z M 3 11 L 4 11 4 12 3 12 Z M 5 11 L 6 11 6 12 5 12 Z M 7 11 L 8 11 8 12 7 12 Z M 1 12 L 0 12 0 13 1 13 Z M 2 12 L 3 12 3 13 2 13 Z M 4 12 L 5 12 5 13 4 13 Z M 6 12 L 7 12 7 13 6 13 Z M 1 13 L 2 13 2 14 1 14 Z M 3 13 L 4 13 4 14 3 14 Z M 5 13 L 6 13 6 14 5 14 Z M 7 13 L 8 13 8 14 7 14 Z M 1 14 L 0 14 0 15 1 15 Z M 2 14 L 3 14 3 15 2 15 Z M 4 14 L 5 14 5 15 4 15 Z M 6 14 L 7 14 7 15 6 15 Z M 1 15 L 2 15 2 16 1 16 Z M 3 15 L 4 15 4 16 3 16 Z M 5 15 L 6 15 6 16 5 16 Z M 7 15 L 8 15 8 16 7 16 Z" fill="black" fill-rule="nonzero" /></svg>