<?xml version="1.0" encoding="utf-8" ?>
<svg baseProfile="full" height="1000" version="1.1" viewBox="0 0 8 16" width="1000" xmlns="http://www.w3.org/2000/svg" xmlns:ev="http://www.w3.org/2001/xml-events" xmlns:xlink="http://www.w3.org/1999/xlink"><defs /><path d="M 1 0 L 4 0 4 1 5 1 5 0 8 0 8 16 7 16 7 15 6 15 6 16 3 16 3 15 2 15 2 16 0 16 0 15 1 15 1 14 0 14 0 13 1 13 1 12 0 12 0 11 1 11 1 10 0 10 0 9 1 9 1 8 0 8 0 7 1 7 1 6 0 6 0 5 1 5 1 4 0 4 0 3 1 3 1 2 0 2 0 1 1 1 Z M 2 1 L 2 2 3 2 3 1 Z M 6 1 L 6 2 7 2 7 1 Z M 4 2 L 4 3 5 3 5 2 Z M 2 3 L 2 4 3 4 3 3 Z M 6 3 L 6 4 7 4 7 3 Z M 4 4 L 4 5 5 5 5 4 Z M 2 5 L 2 6 3 6 3 5 Z M 6 5 L 6 6 7 6 7 5 Z M 4 6 L 4 7 5 7 5 6 Z M 2 7 L 2 8 3 8 3 7 Z M 6 7 L 6 8 7 8 7 7 Z M 4 8 L 4 9 5 9 5 8 Z M 2 9 L 2 10 3 10 3 9 Z M 6 9 L 6 10 7 10 7 9 Z M 4 10 L 4 11 5 11 5 10 Z M 2 11 L 2 12 3 12 3 11 Z M 6 11 L 6 12 7 12 7 11 Z M 4 12 L 4 13 5 13 5 12 Z M 2 13 L 2 14 3 14 3 13 Z M 6 13 L 6 14 7 14 7 13 Z M 4 14 L 4 15 5 15 5 14 Z" fill="black" fill-rule="nonzero" /></svg>