<?xml version="1.0" encoding="utf-8" ?>
<svg baseProfile="full" height="1000" version="1.1" viewBox="0 0 8 16" width="1000" xmlns="http://www.w3.org/2000/svg" xmlns:ev="http://www.w3.org/2001/xml-events" xmlns:xlink="http://www.w3.org/1999/xlink"><defs /><path d="M 1 2 L 3 2 3 3 1 3 Z M 6 2 L 8 2 8 4 7 4 7 5 6 5 6 7 5 7 5 8 4 8 4 10 3 10 3 11 2 11 2 13 0 13 0 11 1 11 1 10 2 10 2 8 3 8 3 7 4 7 4 5 3 5 3 3 4 3 4 5 5 5 5 4 6 4 Z M 1 3 L 0 3 0 5 1 5 Z M 1 5 L 3 5 3 6 1 6 Z M 5 9 L 7 9 7 10 5 10 Z M 4 10 L 5 10 5 12 4 12 Z M 7 10 L 8 10 8 12 7 12 Z M 5 12 L 7 12 7 13 5 13 Z" fill="black" fill-rule="nonzero" /></svg>