<?xml version="1.0" encoding="utf-8" ?>
<svg baseProfile="full" height="1000" version="1.1" viewBox="0 0 8 16" width="1000" xmlns="http://www.w3.org/2000/svg" xmlns:ev="http://www.w3.org/2001/xml-events" xmlns:xlink="http://www.w3.org/1999/xlink"><defs /><path d="M 0 1 L 2 1 2 2 3 2 3 3 4 3 4 4 5 4 5 5 6 5 6 6 7 6 7 7 6 7 6 8 5 8 5 9 4 9 4 10 3 10 3 11 2 11 2 12 0 12 0 11 1 11 1 10 2 10 2 9 3 9 3 8 4 8 4 7 5 7 5 6 4 6 4 5 3 5 3 4 2 4 2 3 1 3 1 2 0 2 Z M 5 10 L 7 10 7 11 6 11 6 12 5 12 5 13 4 13 4 14 3 14 3 15 2 15 2 16 0 16 0 15 1 15 1 14 2 14 2 13 3 13 3 12 4 12 4 11 5 11 Z" fill="black" fill-rule="nonzero" /></svg>