<?xml version="1.0" encoding="utf-8" ?>
<svg baseProfile="full" height="1000" version="1.1" viewBox="0 0 8 16" width="1000" xmlns="http://www.w3.org/2000/svg" xmlns:ev="http://www.w3.org/2001/xml-events" xmlns:xlink="http://www.w3.org/1999/xlink"><defs /><path d="M 1 0 L 3 0 3 1 1 1 Z M 3 1 L 4 1 4 2 3 2 Z M 4 2 L 7 2 7 3 4 3 Z M 7 3 L 8 3 8 4 7 4 Z M 7 6 L 8 6 8 7 7 7 Z M 7 7 L 5 7 5 8 7 8 Z M 5 8 L 4 8 4 9 0 9 0 8 1 8 1 10 2 10 2 11 4 11 4 10 5 10 Z M 2 11 L 1 11 1 12 2 12 Z M 4 11 L 5 11 5 12 4 12 Z M 1 12 L 0 12 0 13 1 13 Z M 5 12 L 6 12 6 13 5 13 Z M 6 13 L 7 13 7 14 6 14 Z M 7 14 L 8 14 8 16 7 16 Z" fill="black" fill-rule="nonzero" /></svg>