<?xml version="1.0" encoding="utf-8" ?>
<svg baseProfile="full" height="1000" version="1.1" viewBox="0 0 8 16" width="1000" xmlns="http://www.w3.org/2000/svg" xmlns:ev="http://www.w3.org/2001/xml-events" xmlns:xlink="http://www.w3.org/1999/xlink"><defs /><path d="M 0 9 L 2 9 2 10 0 10 Z M 7 9 L 8 9 8 11 6 11 6 10 7 10 Z M 2 10 L 4 10 4 11 6 11 6 12 7 12 7 13 8 13 8 14 6 14 6 13 5 13 5 12 3 12 3 11 2 11 Z M 3 12 L 2 12 2 13 3 13 Z M 2 13 L 0 13 0 14 2 14 Z" fill="black" fill-rule="nonzero" /></svg>