<?xml version="1.0" encoding="utf-8" ?>
<svg baseProfile="full" height="1000" version="1.1" viewBox="0 0 8 16" width="1000" xmlns="http://www.w3.org/2000/svg" xmlns:ev="http://www.w3.org/2001/xml-events" xmlns:xlink="http://www.w3.org/1999/xlink"><defs /><path d="M 0 3 L 2 3 2 4 0 4 Z M 2 4 L 4 4 4 5 2 5 Z M 4 5 L 5 5 5 6 4 6 Z M 5 6 L 7 6 7 7 5 7 Z M 7 7 L 8 7 8 8 7 8 Z M 7 8 L 5 8 5 9 7 9 Z M 5 9 L 4 9 4 10 5 10 Z M 4 10 L 3 10 3 11 4 11 Z M 3 11 L 1 11 1 12 0 12 0 14 1 14 1 13 2 13 2 12 3 12 Z M 2 13 L 4 13 4 14 5 14 5 16 4 16 4 15 3 15 3 14 2 14 Z" fill="black" fill-rule="nonzero" /></svg>