<?xml version="1.0" encoding="utf-8" ?>
<svg baseProfile="full" height="1000" version="1.1" viewBox="0 0 8 16" width="1000" xmlns="http://www.w3.org/2000/svg" xmlns:ev="http://www.w3.org/2001/xml-events" xmlns:xlink="http://www.w3.org/1999/xlink"><defs /><path d="M 1 2 L 6 2 6 3 7 3 7 6 6 6 6 7 5 7 5 8 6 8 6 9 7 9 7 12 6 12 6 13 1 13 1 12 0 12 0 9 1 9 1 8 2 8 2 7 1 7 1 6 0 6 0 3 1 3 Z M 2 3 L 2 6 3 6 3 7 4 7 4 6 5 6 5 3 Z M 3 8 L 3 9 2 9 2 12 5 12 5 9 4 9 4 8 Z" fill="black" fill-rule="nonzero" /></svg>