<?xml version="1.0" encoding="utf-8" ?>
<svg baseProfile="full" height="1000" version="1.1" viewBox="0 0 8 16" width="1000" xmlns="http://www.w3.org/2000/svg" xmlns:ev="http://www.w3.org/2001/xml-events" xmlns:xlink="http://www.w3.org/1999/xlink"><defs /><path d="M 0 4 L 2 4 2 6 3 6 3 7 5 7 5 6 6 6 6 4 8 4 8 6 7 6 7 7 6 7 6 8 5 8 5 9 6 9 6 10 7 10 7 11 8 11 8 13 6 13 6 11 5 11 5 10 3 10 3 11 2 11 2 13 0 13 0 11 1 11 1 10 2 10 2 9 3 9 3 8 2 8 2 7 1 7 1 6 0 6 Z" fill="black" fill-rule="nonzero" /></svg>