<?xml version="1.0" encoding="utf-8" ?>
<svg baseProfile="full" height="1000" version="1.1" viewBox="0 0 8 16" width="1000" xmlns="http://www.w3.org/2000/svg" xmlns:ev="http://www.w3.org/2001/xml-events" xmlns:xlink="http://www.w3.org/1999/xlink"><defs /><path d="M 5 1 L 7 1 7 2 6 2 6 3 5 3 5 4 4 4 4 5 3 5 3 6 2 6 2 7 3 7 3 8 4 8 4 9 5 9 5 10 6 10 6 11 7 11 7 12 5 12 5 11 4 11 4 10 3 10 3 9 2 9 2 8 1 8 1 7 0 7 0 6 1 6 1 5 2 5 2 4 3 4 3 3 4 3 4 2 5 2 Z M 0 10 L 2 10 2 11 3 11 3 12 4 12 4 13 5 13 5 14 6 14 6 15 7 15 7 16 5 16 5 15 4 15 4 14 3 14 3 13 2 13 2 12 1 12 1 11 0 11 Z" fill="black" fill-rule="nonzero" /></svg>