<?xml version="1.0" encoding="utf-8" ?>
<svg baseProfile="full" height="1000" version="1.1" viewBox="0 0 8 16" width="1000" xmlns="http://www.w3.org/2000/svg" xmlns:ev="http://www.w3.org/2001/xml-events" xmlns:xlink="http://www.w3.org/1999/xlink"><defs /><path d="M 7 2 L 8 2 8 3 7 3 Z M 7 3 L 5 3 5 4 7 4 Z M 5 4 L 3 4 3 5 5 5 Z M 3 5 L 2 5 2 6 3 6 Z M 2 6 L 0 6 0 7 2 7 Z M 0 8 L 1 8 1 9 0 9 Z M 1 9 L 3 9 3 10 1 10 Z M 3 10 L 4 10 4 11 3 11 Z M 4 11 L 6 11 6 12 7 12 7 13 5 13 5 12 4 12 Z M 7 13 L 8 13 8 14 7 14 Z" fill="black" fill-rule="nonzero" /></svg>