<?xml version="1.0" encoding="utf-8" ?>
<svg baseProfile="full" height="1000" version="1.1" viewBox="0 0 8 16" width="1000" xmlns="http://www.w3.org/2000/svg" xmlns:ev="http://www.w3.org/2001/xml-events" xmlns:xlink="http://www.w3.org/1999/xlink"><defs /><path d="M 0 2 L 2 2 2 3 3 3 3 4 4 4 4 5 5 5 5 6 6 6 6 7 7 7 7 8 6 8 6 9 5 9 5 10 4 10 4 11 3 11 3 12 2 12 2 13 0 13 0 12 1 12 1 11 2 11 2 10 3 10 3 9 4 9 4 8 5 8 5 7 4 7 4 6 3 6 3 5 2 5 2 4 1 4 1 3 0 3 Z" fill="black" fill-rule="nonzero" /></svg>