<?xml version="1.0" encoding="utf-8" ?>
<svg baseProfile="full" height="1000" version="1.1" viewBox="0 0 8 16" width="1000" xmlns="http://www.w3.org/2000/svg" xmlns:ev="http://www.w3.org/2001/xml-events" xmlns:xlink="http://www.w3.org/1999/xlink"><defs /><path d="M 2 0 L 3 0 3 1 2 1 Z M 2 1 L 0 1 0 2 2 2 Z M 0 3 L 2 3 2 4 0 4 Z M 2 4 L 5 4 5 5 6 5 6 6 4 6 4 5 2 5 Z M 6 6 L 7 6 7 7 6 7 Z M 7 7 L 8 7 8 8 7 8 Z M 7 12 L 8 12 8 13 7 13 Z M 7 13 L 5 13 5 14 4 14 4 15 6 15 6 14 7 14 Z M 4 15 L 3 15 3 16 4 16 Z" fill="black" fill-rule="nonzero" /></svg>