<?xml version="1.0" encoding="utf-8" ?>
<svg baseProfile="full" height="1000" version="1.1" viewBox="0 0 8 16" width="1000" xmlns="http://www.w3.org/2000/svg" xmlns:ev="http://www.w3.org/2001/xml-events" xmlns:xlink="http://www.w3.org/1999/xlink"><defs /><path d="M 6 0 L 7 0 7 1 6 1 Z M 6 1 L 4 1 4 3 5 3 5 2 6 2 Z M 4 3 L 2 3 2 4 1 4 1 3 0 3 0 6 1 6 1 5 2 5 2 6 4 6 4 5 3 5 3 4 4 4 Z M 4 6 L 5 6 5 7 4 7 Z M 5 7 L 6 7 6 8 5 8 Z M 6 8 L 8 8 8 10 7 10 7 9 6 9 Z M 0 15 L 1 15 1 16 0 16 Z" fill="black" fill-rule="nonzero" /></svg>