<?xml version="1.0" encoding="utf-8" ?>
<svg baseProfile="full" height="1000" version="1.1" viewBox="0 0 8 16" width="1000" xmlns="http://www.w3.org/2000/svg" xmlns:ev="http://www.w3.org/2001/xml-events" xmlns:xlink="http://www.w3.org/1999/xlink"><defs /><path d="M 0 0 L 1 0 1 1 0 1 Z M 4 0 L 5 0 5 1 4 1 Z M 2 1 L 3 1 3 2 2 2 Z M 6 1 L 7 1 7 2 6 2 Z M 0 2 L 1 2 1 3 0 3 Z M 4 2 L 5 2 5 3 4 3 Z M 2 3 L 3 3 3 4 2 4 Z M 6 3 L 7 3 7 4 6 4 Z M 0 4 L 1 4 1 5 0 5 Z M 4 4 L 5 4 5 5 4 5 Z M 2 5 L 3 5 3 6 2 6 Z M 6 5 L 7 5 7 6 6 6 Z M 0 6 L 1 6 1 7 0 7 Z M 4 6 L 5 6 5 7 4 7 Z M 2 7 L 3 7 3 8 2 8 Z M 6 7 L 7 7 7 8 6 8 Z M 0 8 L 1 8 1 9 0 9 Z M 4 8 L 5 8 5 9 4 9 Z M 2 9 L 3 9 3 10 2 10 Z M 6 9 L 7 9 7 10 6 10 Z M 0 10 L 1 10 1 11 0 11 Z M 4 10 L 5 10 5 11 4 11 Z M 2 11 L 3 11 3 12 2 12 Z M 6 11 L 7 11 7 12 6 12 Z M 0 12 L 1 12 1 13 0 13 Z M 4 12 L 5 12 5 13 4 13 Z M 2 13 L 3 13 3 14 2 14 Z M 6 13 L 7 13 7 14 6 14 Z M 0 14 L 1 14 1 15 0 15 Z M 4 14 L 5 14 5 15 4 15 Z M 2 15 L 3 15 3 16 2 16 Z M 6 15 L 7 15 7 16 6 16 Z" fill="black" fill-rule="nonzero" /></svg>