<?xml version="1.0" encoding="utf-8" ?>
<svg baseProfile="full" height="1000" version="1.1" viewBox="0 0 8 16" width="1000" xmlns="http://www.w3.org/2000/svg" xmlns:ev="http://www.w3.org/2001/xml-events" xmlns:xlink="http://www.w3.org/1999/xlink"><defs /><path d="M 0 0 L 2 0 2 1 0 1 Z M 2 1 L 3 1 3 2 4 2 4 3 2 3 Z M 7 2 L 8 2 8 3 7 3 Z M 4 3 L 5 3 5 4 4 4 Z M 7 3 L 6 3 6 4 5 4 5 5 6 5 6 6 7 6 Z M 5 5 L 3 5 3 6 5 6 Z M 3 6 L 1 6 1 7 3 7 Z M 7 6 L 8 6 8 7 7 7 Z M 1 7 L 0 7 0 8 1 8 Z M 0 10 L 1 10 1 11 0 11 Z M 1 11 L 8 11 8 12 1 12 Z" fill="black" fill-rule="nonzero" /></svg>